<?xml version="1.0" standalone="no"?>
<!DOCTYPE svg PUBLIC "-//W3C//DTD SVG 20010904//EN"
 "http://www.w3.org/TR/2001/REC-SVG-20010904/DTD/svg10.dtd">
<svg version="1.0" xmlns="http://www.w3.org/2000/svg"
 width="1280.000000pt" height="664.000000pt" viewBox="0 0 1280.000000 664.000000"
 preserveAspectRatio="xMidYMid meet">

<g transform="translate(0.000000,664.000000) scale(0.100000,-0.100000)"
fill="#000000" stroke="none">
<path d="M2300 5450 c-513 -44 -1004 -278 -1366 -651 -360 -372 -567 -835
-605 -1353 -32 -442 72 -880 300 -1261 257 -431 653 -757 1126 -928 563 -204
1208 -161 1735 116 585 307 988 846 1127 1506 25 118 27 143 27 401 1 289 -6
359 -56 550 -140 537 -474 996 -943 1295 -74 47 -260 143 -338 174 -315 126
-671 179 -1007 151z m-320 -514 c52 -8 124 -17 159 -21 64 -7 64 -8 42 -25
-21 -15 -23 -22 -16 -68 4 -28 13 -56 21 -63 22 -18 16 -99 -7 -99 -12 0 -41
71 -35 87 7 18 -5 103 -14 103 -5 0 -53 -26 -107 -59 l-99 -59 -130 20 c-71
11 -140 22 -153 24 -21 5 -11 14 70 66 52 33 110 70 129 83 19 13 37 24 40 24
3 1 48 -5 100 -13z m440 -150 c-36 -82 -55 -181 -46 -249 4 -28 23 -112 42
-187 69 -272 37 -441 -109 -576 -32 -30 -62 -54 -67 -54 -5 0 -4 17 2 38 16
55 2 190 -32 326 -31 122 -40 248 -21 298 4 13 11 37 15 53 6 29 5 29 -14 -6
-43 -80 -47 -207 -14 -419 22 -140 20 -291 -5 -363 -54 -155 -191 -314 -326
-381 -75 -37 -79 -32 -9 10 141 85 222 212 244 389 11 84 -1 232 -23 295 -7
22 -12 90 -11 180 0 131 3 153 28 225 44 129 108 235 204 339 49 53 164 157
169 152 2 -2 -10 -33 -27 -70z m-912 -92 c33 -65 86 -110 209 -176 207 -113
287 -211 288 -352 0 -39 -4 -80 -8 -90 -7 -18 -9 -17 -27 11 -26 43 -104 103
-201 155 -96 50 -161 105 -202 168 -18 28 -26 36 -22 20 22 -72 90 -141 235
-240 132 -90 200 -161 231 -241 21 -55 24 -80 24 -184 -1 -101 -4 -127 -23
-167 -24 -54 -38 -66 -17 -15 20 50 28 137 16 192 -27 121 -95 203 -254 308
-63 42 -135 99 -164 131 -108 118 -160 282 -149 463 8 117 15 139 32 92 6 -19
21 -53 32 -75z m572 49 c6 -21 13 -66 17 -100 6 -62 6 -63 -33 -102 -46 -45
-110 -61 -173 -42 -65 19 -81 47 -115 201 l-5 25 87 -3 c80 -2 91 0 137 27 28
16 55 29 62 30 7 1 17 -16 23 -36z m1045 -79 l110 -7 104 -95 c57 -53 98 -98
91 -100 -6 -2 -73 -1 -147 3 l-135 7 -78 69 c-43 38 -81 69 -84 69 -11 0 -36
-60 -36 -88 0 -29 -33 -82 -51 -82 -14 0 -10 52 6 80 8 14 24 44 36 68 19 40
19 45 5 61 -25 28 -19 34 27 28 23 -4 92 -9 152 -13z m-321 -138 c153 -230
190 -488 105 -717 -86 -232 -103 -335 -75 -453 22 -94 70 -180 139 -249 32
-32 48 -53 35 -46 -13 6 -53 42 -89 79 -79 80 -147 206 -175 324 -16 68 -16
85 -5 154 7 42 33 140 58 217 61 188 63 197 62 300 -1 126 -14 157 -16 38 -1
-106 -10 -139 -81 -299 -51 -114 -62 -153 -70 -234 l-7 -64 -33 34 c-46 49
-90 144 -102 221 -15 96 8 204 72 344 101 220 113 284 79 420 l-19 80 43 -47
c23 -26 59 -72 79 -102z m283 -30 c52 -40 65 -45 131 -52 39 -3 72 -9 72 -12
0 -11 -34 -97 -50 -126 -33 -61 -119 -82 -188 -47 -45 23 -67 46 -82 86 -10
26 -7 41 22 113 18 45 34 82 35 82 2 0 29 -20 60 -44z m509 -128 c-15 -202
-109 -371 -255 -465 -31 -20 -93 -51 -138 -69 -212 -83 -300 -183 -313 -354
l-6 -85 -8 57 c-10 67 3 150 36 241 37 102 96 153 282 242 151 72 231 128 258
179 6 12 -9 2 -33 -21 -48 -45 -139 -95 -208 -113 -67 -18 -152 -58 -194 -91
-21 -17 -41 -28 -44 -25 -3 3 -1 36 5 72 18 110 87 194 202 246 19 9 86 34
149 55 127 42 189 86 237 169 14 24 28 44 31 44 3 0 3 -37 -1 -82z m-2326
-523 c151 -10 302 -46 403 -97 41 -20 117 -85 117 -99 0 -5 -24 0 -52 11 -119
43 -180 53 -321 54 -139 0 -162 -6 -152 -38 2 -6 9 -144 14 -306 6 -162 14
-338 17 -390 l6 -95 241 0 c196 0 258 -3 327 -18 168 -36 335 -104 427 -174
42 -32 37 -39 -13 -18 -186 80 -465 132 -659 122 -132 -7 -270 -30 -368 -62
-39 -13 -74 -22 -76 -19 -3 3 -11 96 -17 207 -35 574 -55 874 -59 895 -8 33 2
43 38 38 18 -3 75 -8 127 -11z m2585 -267 c-57 -892 -55 -870 -74 -863 -136
55 -304 80 -511 79 -203 -2 -331 -29 -605 -128 -13 -5 -7 4 15 23 44 39 194
114 280 140 163 49 224 56 476 56 l241 0 6 145 c4 80 11 261 18 404 8 189 8
261 0 269 -7 7 -58 11 -139 11 -132 0 -222 -15 -325 -54 -29 -11 -54 -20 -57
-20 -2 0 15 20 39 44 78 79 238 136 441 156 161 16 205 16 208 3 2 -6 -4 -125
-13 -265z m-2822 -25 l67 -6 0 -57 c0 -63 -7 -70 -73 -70 l-28 0 5 -57 c3 -32
10 -179 16 -328 5 -148 13 -308 16 -353 6 -80 7 -84 27 -78 41 12 222 45 312
58 53 8 188 13 330 13 261 -1 348 -11 506 -61 85 -27 185 -72 177 -80 -3 -2
-54 5 -114 16 -409 75 -932 35 -1302 -98 -23 -8 -45 -12 -49 -9 -3 4 -12 102
-19 219 -7 117 -20 328 -28 468 -9 140 -18 294 -21 343 l-7 87 59 0 c32 0 88
-3 126 -7z m3092 -50 c-3 -32 -10 -139 -16 -238 -34 -595 -50 -825 -58 -825
-3 0 -46 13 -96 29 -194 63 -376 96 -618 113 -205 14 -448 1 -631 -32 -133
-24 -140 -24 -96 0 246 135 694 168 1150 85 74 -14 145 -28 158 -31 21 -6 22
-4 22 72 0 44 5 133 10 199 5 66 12 216 16 333 l7 212 -29 0 c-67 0 -74 7 -74
71 l0 58 53 4 c28 2 87 4 129 5 l78 2 -5 -57z m-3292 -260 c15 -4 17 -14 15
-61 l-3 -57 -43 -3 c-26 -2 -45 -9 -49 -17 -6 -18 24 -590 36 -664 9 -59 28
-81 69 -81 21 0 116 19 247 50 57 14 197 38 365 63 121 17 192 21 425 22 299
0 371 -8 510 -58 l60 -22 -370 -6 c-536 -9 -640 -27 -1108 -188 -64 -23 -131
-41 -147 -41 -39 0 -98 24 -128 53 -51 48 -61 85 -72 269 -6 95 -13 209 -16
253 -3 44 -11 176 -18 293 l-11 214 110 -7 c60 -3 118 -9 128 -12z m3547 -35
c0 -29 -5 -118 -10 -198 -6 -80 -17 -260 -25 -400 -9 -140 -20 -273 -26 -295
-20 -72 -106 -135 -185 -135 -22 0 -110 27 -259 80 -116 42 -199 66 -310 90
-203 44 -289 52 -674 57 -209 3 -368 9 -359 14 27 15 101 37 188 56 121 26
578 26 760 0 150 -22 302 -49 430 -77 179 -38 207 -43 233 -36 47 11 43 -13
78 555 5 95 8 180 5 187 -3 7 -24 14 -48 16 l-43 3 -3 57 c-4 70 -9 68 201 76
l47 2 0 -52z"/>
<path d="M5220 4329 c0 -8 7 -25 17 -38 29 -43 32 -101 22 -476 -10 -358 -11
-371 -34 -412 l-23 -41 26 -7 c28 -7 282 5 282 13 0 3 -7 13 -16 23 -8 9 -19
46 -24 80 -11 73 -13 532 -3 542 8 9 22 -16 109 -180 38 -73 72 -133 75 -133
3 0 16 19 29 43 13 23 53 92 89 152 l66 110 8 -170 c4 -93 5 -231 2 -305 -5
-119 -8 -137 -27 -157 l-21 -23 141 0 c149 0 160 4 125 43 -17 18 -18 52 -16
443 2 421 2 423 24 453 13 17 19 34 15 38 -4 5 -61 10 -127 11 -99 3 -119 1
-119 -11 0 -16 -22 -58 -117 -225 -36 -61 -69 -115 -74 -118 -5 -3 -15 7 -22
23 -6 16 -48 95 -91 176 l-80 147 -56 0 c-32 0 -85 3 -119 6 -49 6 -61 4 -61
-7z"/>
<path d="M6460 4332 c0 -5 7 -15 15 -22 24 -20 18 -93 -16 -204 -16 -56 -39
-132 -51 -171 -63 -215 -79 -263 -135 -405 -25 -63 -56 -126 -69 -141 -13 -14
-24 -28 -24 -32 0 -4 66 -7 146 -7 l146 0 -17 26 c-19 29 -17 46 16 156 l20
68 67 0 c37 0 91 -3 121 -7 53 -6 54 -6 79 -61 29 -65 32 -134 7 -162 -17 -18
-13 -19 121 -22 77 -2 145 -1 151 1 9 2 7 11 -8 30 -26 33 -43 73 -80 186 -16
50 -43 126 -59 170 -58 156 -162 470 -169 513 -7 34 -5 47 9 65 l17 22 -143 3
c-83 2 -144 -1 -144 -6z m191 -537 l38 -85 -75 0 c-56 0 -75 3 -72 13 8 32 63
165 67 161 2 -2 21 -42 42 -89z"/>
<path d="M6581 3789 c-20 -48 -27 -78 -16 -68 12 13 54 119 46 119 -4 0 -18
-23 -30 -51z"/>
<path d="M7435 4331 c-121 -30 -274 -150 -330 -260 -40 -79 -55 -143 -55 -236
0 -149 39 -234 157 -346 69 -66 114 -91 214 -119 93 -25 150 -25 252 1 169 43
248 103 315 236 40 79 72 194 72 257 l0 34 -72 4 c-40 2 -151 5 -245 6 l-173
3 0 -60 0 -61 88 0 c48 0 111 -3 140 -6 47 -6 52 -9 52 -31 0 -28 -21 -71 -64
-132 -88 -125 -321 -137 -439 -23 -21 20 -51 64 -67 96 -26 51 -30 70 -30 141
0 117 21 179 80 236 94 92 238 115 361 57 68 -31 99 -63 99 -100 0 -15 3 -28
8 -28 10 0 122 59 154 82 26 18 27 21 14 46 -47 91 -151 164 -281 197 -61 15
-197 19 -250 6z"/>
<path d="M8172 4303 l23 -38 0 -411 0 -412 -33 -46 -33 -46 161 0 c89 0 160 3
158 8 -2 4 -15 30 -29 57 l-24 50 2 360 c3 360 10 445 40 492 l15 23 -152 0
-152 0 24 -37z"/>
<path d="M8602 4241 l-51 -99 26 -7 c22 -5 31 -1 50 24 l24 31 157 -1 c86 0
174 -3 195 -7 l37 -7 -21 -40 c-12 -22 -49 -83 -82 -136 -55 -88 -63 -97 -96
-103 -29 -4 -41 -14 -66 -53 -16 -27 -31 -51 -33 -55 -2 -5 10 -8 27 -8 l31 0
-117 -192 c-64 -106 -121 -196 -126 -199 -6 -4 -8 -13 -5 -20 5 -11 69 -14
343 -14 l337 0 49 95 49 95 -31 3 c-23 3 -35 -2 -46 -17 -13 -20 -23 -21 -209
-21 -107 0 -194 2 -194 5 0 3 36 63 81 135 77 125 82 130 114 130 29 0 37 6
65 51 33 50 32 64 -2 71 -13 2 8 44 103 207 66 113 118 210 115 216 -3 9 -94
13 -339 14 l-334 2 -51 -100z"/>
<path d="M9910 4330 c0 -3 9 -23 20 -45 18 -35 20 -59 20 -207 l0 -168 -147 0
-146 0 6 169 c5 144 8 175 26 210 l21 41 -147 0 -146 0 24 -26 24 -26 0 -423
c0 -412 -1 -424 -21 -452 -11 -15 -24 -34 -28 -40 -6 -10 26 -13 144 -13 l150
0 -20 40 c-18 35 -20 58 -20 210 l0 170 141 0 141 0 -4 -179 c-3 -171 -4 -181
-26 -204 -21 -22 -22 -25 -5 -29 10 -3 77 -6 150 -7 130 -2 166 6 124 29 -39
20 -43 74 -39 474 3 370 4 382 25 425 12 25 21 46 20 47 -5 5 -287 9 -287 4z"/>
<path d="M10600 4334 c0 -4 8 -16 18 -27 24 -26 20 -83 -13 -192 -15 -49 -33
-110 -40 -135 -76 -262 -99 -330 -158 -474 -25 -59 -55 -115 -66 -123 -12 -8
-21 -18 -21 -24 0 -5 61 -9 146 -9 136 0 146 1 138 18 -14 29 -8 114 13 172
18 53 21 55 59 58 21 2 76 1 121 -3 l81 -7 23 -51 c26 -58 30 -136 9 -162 -7
-8 -11 -17 -9 -20 4 -3 238 -8 276 -6 8 1 1 20 -17 50 -28 48 -69 162 -226
625 -77 228 -84 265 -59 286 8 7 15 15 15 19 0 3 -65 7 -145 9 -80 1 -145 0
-145 -4z m189 -526 c18 -40 35 -79 38 -85 4 -10 -14 -13 -72 -13 -42 0 -75 4
-73 8 2 5 17 43 33 85 17 42 33 77 36 77 3 0 21 -33 38 -72z"/>
<path d="M10726 3791 c-28 -55 -35 -84 -14 -63 14 14 49 104 43 110 -2 2 -15
-19 -29 -47z"/>
<path d="M11300 4329 c0 -8 10 -30 23 -49 22 -34 22 -39 19 -315 -4 -390 -14
-525 -40 -569 l-20 -34 25 -7 c29 -7 283 5 283 13 0 3 -7 14 -16 24 -10 10
-19 40 -21 70 l-3 53 18 -55 c10 -30 26 -69 35 -87 9 -18 17 -34 17 -38 0 -3
-70 -5 -156 -5 -99 0 -153 -4 -149 -10 3 -5 34 -8 68 -6 34 2 108 4 165 5 101
1 115 6 88 33 -7 8 -22 30 -32 48 -17 31 -19 63 -22 283 -2 150 -7 245 -13
242 -5 -4 -9 -72 -10 -153 -1 -81 -5 -172 -9 -202 -6 -37 -7 1 -4 114 2 93 4
208 4 255 l0 86 26 -45 c14 -25 53 -97 86 -160 32 -63 62 -116 66 -117 4 -1
48 68 98 153 l91 156 8 -229 c8 -268 1 -372 -27 -408 l-19 -25 146 0 146 0
-23 31 -23 31 2 420 c3 409 3 421 24 455 12 19 18 37 14 41 -4 4 -59 8 -123
10 l-117 3 -37 -78 c-44 -93 -81 -160 -127 -232 -41 -63 -26 -77 -141 139
l-84 160 -57 0 c-31 0 -84 3 -118 6 -48 6 -61 4 -61 -7z"/>
<path d="M6762 4308 c-29 -29 -14 -99 85 -383 31 -88 75 -218 100 -290 47
-140 102 -264 128 -285 8 -7 15 -16 15 -21 0 -5 -66 -10 -147 -12 l-148 -3
157 -2 c104 -1 159 2 164 9 3 6 -7 25 -24 42 -16 18 -39 50 -50 72 -31 64
-135 354 -197 550 -31 99 -61 190 -66 203 -12 30 -12 99 1 107 12 7 13 25 2
25 -4 0 -13 -5 -20 -12z"/>
<path d="M9725 4296 c-9 -13 -20 -38 -25 -55 -10 -37 -16 -298 -7 -308 4 -3 7
47 7 113 0 124 16 212 44 243 18 20 20 31 6 31 -5 0 -17 -11 -25 -24z"/>
<path d="M10902 4308 c-29 -29 -14 -89 108 -438 43 -124 89 -256 101 -295 25
-80 70 -175 105 -222 l25 -32 -153 -4 -153 -3 159 1 c105 0 161 4 163 11 2 6
-9 24 -24 40 -48 52 -92 160 -213 524 -114 343 -117 360 -95 413 8 20 -5 23
-23 5z"/>
<path d="M5551 4193 c72 -137 89 -166 95 -161 2 3 -16 43 -41 89 -24 46 -57
108 -72 136 -16 29 -31 53 -36 53 -4 0 21 -53 54 -117z"/>
<path d="M8451 4291 c-22 -41 -32 -192 -34 -501 -1 -338 -2 -335 53 -415 11
-16 20 -33 20 -37 0 -5 -70 -8 -155 -8 -101 0 -155 -4 -155 -10 0 -15 312 -1
322 14 4 6 -3 24 -16 41 -13 16 -31 54 -41 83 -15 48 -17 88 -12 390 3 273 7
348 21 396 17 61 16 83 -3 47z"/>
<path d="M10222 4297 c-35 -42 -40 -94 -46 -448 -4 -203 -2 -370 3 -392 5 -21
21 -55 35 -76 14 -20 26 -40 26 -44 0 -4 -65 -7 -145 -7 -80 0 -145 -3 -145
-7 0 -5 69 -8 152 -8 140 0 153 1 156 18 2 11 -5 29 -15 40 -57 65 -63 131
-49 527 11 283 15 340 30 368 18 35 17 52 -2 29z"/>
<path d="M11642 4173 c79 -153 76 -148 83 -141 3 3 -12 36 -32 74 -21 39 -54
100 -73 137 -19 37 -38 67 -42 67 -4 0 25 -62 64 -137z"/>
<path d="M6085 4268 c-12 -29 -15 -110 -17 -435 l-3 -399 30 -38 c17 -21 36
-48 42 -60 12 -20 13 -20 13 -1 0 11 -11 30 -24 42 -44 42 -48 83 -44 479 3
273 8 378 17 402 18 45 5 54 -14 10z"/>
<path d="M9300 4222 c-24 -42 -71 -120 -105 -172 -59 -90 -80 -130 -70 -130
14 0 231 367 223 375 -2 3 -24 -30 -48 -73z"/>
<path d="M12169 4278 c-16 -27 -33 -557 -25 -737 5 -104 8 -116 33 -150 15
-20 30 -38 33 -41 4 -3 10 -12 13 -20 4 -11 6 -9 6 5 0 11 -10 31 -24 43 -14
13 -30 42 -36 65 -15 55 -7 768 9 816 14 41 9 52 -9 19z"/>
<path d="M8657 4164 c-12 -12 -8 -26 5 -18 6 4 85 6 175 5 102 -2 163 1 163 8
0 11 -332 16 -343 5z"/>
<path d="M7435 4120 c-55 -22 -125 -82 -152 -133 -25 -45 -25 -217 0 -267 9
-19 14 -26 11 -15 -4 11 -9 70 -11 130 l-5 110 40 60 c34 50 51 66 103 90 83
40 189 42 264 6 69 -34 73 -35 47 -12 -58 50 -207 65 -297 31z"/>
<path d="M5810 3930 c0 -6 -34 -67 -75 -136 -42 -70 -74 -129 -71 -131 8 -9
38 32 82 115 26 48 56 99 66 114 20 29 23 48 8 48 -5 0 -10 -5 -10 -10z"/>
<path d="M11888 3920 c-45 -73 -148 -250 -148 -255 0 -3 9 -1 20 5 11 6 20 14
20 18 0 10 103 196 119 216 7 8 11 21 9 28 -3 8 -10 3 -20 -12z"/>
<path d="M5482 3695 c3 -239 3 -240 31 -296 15 -31 27 -59 27 -62 0 -4 -70 -7
-156 -7 -96 0 -153 -4 -149 -10 4 -7 322 -4 332 4 1 1 -4 13 -12 26 -50 87
-50 84 -53 330 -2 139 -7 239 -13 245 -7 7 -9 -70 -7 -230z"/>
<path d="M9125 3820 c-34 -51 -44 -59 -74 -62 -33 -3 -39 -9 -100 -111 -35
-59 -62 -110 -59 -112 3 -3 36 44 74 105 63 100 72 110 99 110 26 0 36 10 73
65 23 36 39 65 35 65 -5 0 -26 -27 -48 -60z"/>
<path d="M8070 3737 c-36 -143 -141 -290 -242 -339 -47 -23 -164 -58 -238 -71
-22 -4 -22 -4 5 -5 36 -2 166 29 215 51 61 27 119 75 166 140 26 34 49 69 52
77 3 8 13 33 22 55 21 50 44 134 38 140 -2 3 -10 -19 -18 -48z"/>
<path d="M7570 3768 c0 -5 62 -7 138 -6 139 2 122 5 -46 10 -50 2 -92 0 -92
-4z"/>
<path d="M9688 3658 c-4 -177 1 -219 33 -275 l29 -53 -62 -1 c-35 -1 -103 0
-152 1 -61 1 -86 -2 -82 -9 10 -15 302 -15 312 0 3 6 -4 25 -17 42 -19 26 -24
50 -30 132 -4 55 -8 132 -8 172 l-1 72 113 4 112 3 -122 2 -123 2 -2 -92z"/>
<path d="M6491 3525 c-34 -84 -35 -101 -12 -146 12 -23 20 -43 18 -45 -2 -2
-63 -6 -136 -8 -73 -2 -135 -7 -138 -10 -4 -3 62 -6 145 -6 115 0 152 3 152
13 0 6 -10 31 -22 54 l-22 42 20 63 20 63 91 5 c50 3 94 8 98 12 4 4 -38 8
-93 10 l-100 3 -21 -50z"/>
<path d="M10637 3530 c-31 -69 -33 -122 -8 -163 l21 -34 -108 -7 c-60 -3 -122
-3 -139 0 -18 3 -33 1 -37 -5 -5 -8 36 -11 143 -11 83 0 152 4 156 9 3 6 -4
25 -15 43 -24 40 -25 79 -4 141 l16 47 81 1 c127 1 140 16 18 20 l-104 4 -20
-45z"/>
<path d="M9318 3479 c-14 -24 -37 -68 -52 -96 l-26 -53 -328 -1 c-278 -2 -309
-3 -207 -11 66 -4 216 -7 333 -6 l213 3 50 94 c50 97 64 150 17 70z"/>
<path d="M5848 3318 c-7 -4 52 -7 132 -7 80 1 138 3 130 5 -36 7 -251 10 -262
2z"/>
<path d="M11928 3318 c-7 -4 52 -7 132 -7 80 1 138 3 130 5 -36 7 -251 10
-262 2z"/>
<path d="M7325 3000 c-746 -8 -1561 -26 -1740 -39 -321 -23 3353 -35 5305 -16
1084 10 1144 16 340 35 -1098 26 -2526 33 -3905 20z"/>
<path d="M5264 2570 c-53 -21 -89 -105 -81 -186 10 -96 57 -144 142 -144 88 0
135 60 135 170 0 75 -20 122 -65 150 -34 21 -93 25 -131 10z m97 -76 c20 -21
24 -36 24 -89 0 -70 -20 -105 -61 -105 -42 0 -64 36 -64 107 0 54 4 68 25 88
31 32 46 31 76 -1z"/>
<path d="M8924 2571 c-32 -14 -72 -68 -85 -113 -21 -78 7 -159 67 -199 39 -25
130 -26 161 0 35 30 63 84 63 124 l0 37 -75 0 -75 0 0 -30 c0 -28 2 -30 40
-30 45 0 50 -10 20 -40 -28 -28 -75 -26 -105 5 -21 20 -25 34 -25 83 0 51 4
63 26 86 32 31 62 33 97 6 25 -20 28 -20 51 -5 28 19 26 32 -11 59 -29 22
-115 31 -149 17z"/>
<path d="M9362 2560 c-86 -53 -97 -205 -20 -282 35 -35 43 -38 93 -38 77 0
105 15 105 57 l0 34 -30 -16 c-35 -18 -64 -19 -93 -3 -36 19 -46 40 -47 100 0
51 3 59 31 82 35 30 58 32 99 11 l30 -16 0 36 c0 29 -5 37 -26 45 -42 16 -106
12 -142 -10z"/>
<path d="M9665 2571 c-53 -23 -85 -85 -85 -161 0 -109 50 -170 140 -170 64 0
101 24 124 80 32 81 16 180 -37 229 -29 26 -106 38 -142 22z m93 -74 c48 -51
34 -179 -21 -192 -38 -10 -65 10 -77 57 -14 51 -5 106 23 136 26 28 48 28 75
-1z"/>
<path d="M5540 2405 l0 -165 35 0 35 0 0 65 0 65 51 0 c83 0 129 40 129 111 0
20 -10 40 -29 60 -28 28 -33 29 -125 29 l-96 0 0 -165z m158 103 c14 -14 16
-64 3 -72 -5 -3 -27 -8 -50 -10 l-41 -4 0 49 0 49 38 0 c21 0 43 -5 50 -12z"/>
<path d="M5870 2405 l0 -165 125 0 125 0 0 35 0 35 -90 0 -90 0 0 40 0 40 85
0 c84 0 85 0 85 25 0 25 -1 25 -85 25 l-85 0 0 35 0 35 90 0 90 0 0 30 0 30
-125 0 -125 0 0 -165z"/>
<path d="M6210 2405 l0 -165 36 0 36 0 -4 109 c-2 68 0 103 6 93 5 -9 33 -59
63 -109 49 -83 58 -93 84 -93 l29 0 0 165 0 165 -30 0 -30 0 0 -102 0 -103
-60 103 c-58 98 -62 102 -95 102 l-35 0 0 -165z"/>
<path d="M6680 2405 l0 -165 125 0 125 0 0 35 0 35 -85 0 -85 0 0 130 0 130
-40 0 -40 0 0 -165z"/>
<path d="M6970 2405 l0 -165 125 0 125 0 0 35 0 35 -85 0 -85 0 0 40 0 40 80
0 c79 0 80 0 80 25 0 25 -1 25 -80 25 l-80 0 0 35 0 35 85 0 85 0 0 30 0 30
-125 0 -125 0 0 -165z"/>
<path d="M7380 2558 c0 -12 -79 -260 -95 -301 -7 -16 -3 -18 31 -15 34 3 39 7
48 36 9 33 10 33 65 30 54 -3 56 -4 66 -35 8 -30 13 -33 46 -33 l37 0 -23 73
c-13 39 -37 113 -53 162 l-29 90 -47 3 c-33 2 -46 -1 -46 -10z m70 -123 c11
-38 18 -70 16 -72 -2 -3 -22 -3 -43 -1 l-39 3 19 73 c11 40 22 71 24 68 2 -2
12 -34 23 -71z"/>
<path d="M7650 2405 l0 -165 35 0 34 0 3 73 3 72 35 -48 c71 -98 72 -99 113
-95 l39 3 -52 68 -51 67 25 9 c49 19 70 80 45 134 -16 36 -50 47 -144 47 l-85
0 0 -165z m154 99 c36 -36 9 -74 -53 -74 -30 0 -31 1 -31 45 0 45 0 45 34 45
19 0 42 -7 50 -16z"/>
<path d="M7975 2558 c-3 -8 -4 -81 -3 -163 l3 -150 33 -3 32 -3 0 108 0 108
33 -56 c96 -167 90 -159 125 -159 l32 0 0 165 0 165 -35 0 -34 0 -3 -97 -3
-97 -55 95 c-50 85 -58 94 -88 97 -20 2 -34 -2 -37 -10z"/>
<path d="M8330 2405 l0 -165 35 0 35 0 0 165 0 165 -35 0 -35 0 0 -165z"/>
<path d="M8510 2405 l0 -165 30 0 30 0 0 107 0 108 63 -105 c57 -96 65 -105
95 -108 l32 -3 0 165 0 166 -30 0 -29 0 -3 -102 -3 -103 -60 102 c-56 96 -62
103 -92 103 l-33 0 0 -165z"/>
<path d="M9955 2523 c-4 -27 -13 -91 -21 -143 -8 -52 -16 -105 -18 -117 -3
-20 1 -23 30 -23 l32 0 7 78 c4 42 11 97 14 122 l7 45 16 -50 c9 -27 26 -83
38 -122 19 -64 25 -73 45 -73 29 0 34 9 71 132 15 54 31 92 35 85 4 -6 10 -39
13 -72 17 -148 16 -145 47 -145 16 0 29 3 29 8 0 17 -41 298 -45 310 -2 6 -20
12 -39 12 l-35 0 -32 -102 c-17 -57 -35 -106 -38 -111 -4 -4 -22 42 -41 103
l-34 110 -37 0 c-37 0 -38 0 -44 -47z"/>
<path d="M10405 2518 c-4 -29 -13 -91 -21 -137 -21 -127 -20 -141 15 -141 29
0 30 1 36 68 4 37 10 92 14 122 l7 55 28 -90 c49 -158 47 -155 76 -155 23 0
29 6 39 43 42 143 54 177 62 177 5 0 9 -15 9 -32 0 -18 5 -68 12 -110 11 -76
12 -78 40 -78 15 0 28 4 28 8 0 8 -20 151 -38 267 -7 49 -8 50 -43 53 l-36 3
-38 -117 -38 -118 -17 60 c-52 183 -47 174 -90 174 l-38 0 -7 -52z"/>
<path d="M10830 2468 c0 -176 28 -228 122 -228 103 0 128 42 128 215 l0 115
-35 0 -35 0 0 -107 c0 -119 -12 -156 -50 -161 -41 -6 -50 20 -50 150 l0 118
-40 0 -40 0 0 -102z"/>
<path d="M11180 2405 l0 -165 35 0 34 0 3 100 3 101 60 -101 c53 -88 63 -100
87 -100 l28 0 0 165 0 165 -30 0 -30 0 0 -102 0 -103 -31 55 c-77 136 -89 150
-125 150 l-34 0 0 -165z"/>
<path d="M11540 2405 l0 -165 35 0 35 0 0 165 0 165 -35 0 -35 0 0 -165z"/>
<path d="M11680 2540 c0 -29 1 -30 50 -30 l50 0 0 -135 0 -135 35 0 35 0 0
135 0 135 50 0 c49 0 50 1 50 30 l0 30 -135 0 -135 0 0 -30z"/>
<path d="M12030 2483 l60 -87 0 -78 0 -78 35 0 c34 0 35 1 36 43 1 101 5 114
62 196 32 44 57 83 57 86 0 3 -17 5 -37 5 -35 0 -41 -4 -77 -61 l-39 -60 -38
60 c-37 58 -40 61 -79 61 l-40 0 60 -87z"/>
</g>
</svg>
